<svg version="1.1" id="Layer_1" xmlns="http://www.w3.org/2000/svg" xmlns:xlink="http://www.w3.org/1999/xlink" x="0px" y="0px"
	 width="100%" viewBox="0 0 1475 870" enable-background="new 0 0 1475 870" xml:space="preserve">
<path fill="#000000" opacity="1.000000" stroke="none" 
	d="
M1476.000000,811.000000 
	C1476.000000,830.988403 1476.000000,850.976868 1476.000000,871.000000 
	C1252.974121,871.000000 1029.948364,871.000000 806.145752,870.621582 
	C807.040710,869.828674 808.697327,869.134521 810.386353,869.043701 
	C824.233887,868.299438 838.091858,867.748230 851.937988,866.980774 
	C868.396362,866.068420 884.850159,865.062317 901.297607,863.971069 
	C909.154114,863.449768 917.008972,862.795837 924.832947,861.919128 
	C935.199829,860.757446 945.534058,859.305115 955.885559,858.003296 
	C966.907410,856.617126 977.986023,855.588257 988.944641,853.814880 
	C1005.442261,851.145264 1021.923523,848.286438 1038.288940,844.912231 
	C1055.834717,841.294678 1073.230225,836.951233 1090.711792,833.015381 
	C1093.876465,832.302917 1094.388184,830.290588 1093.988647,827.636047 
	C1092.633545,818.629944 1091.304199,809.619202 1089.837646,800.630981 
	C1087.614136,787.003296 1085.256958,773.397522 1083.007568,759.773987 
	C1081.235840,749.043091 1079.637207,738.282959 1077.788208,727.565735 
	C1075.279175,713.021545 1072.549194,698.515564 1070.016479,683.975342 
	C1067.565430,669.903625 1065.407471,655.779175 1062.821289,641.733093 
	C1060.063599,626.755554 1057.155884,611.799377 1053.942017,596.914062 
	C1050.874512,582.706848 1047.414673,568.581360 1043.879761,554.481995 
	C1043.454834,552.786743 1041.771118,550.684937 1040.184814,550.108276 
	C998.263550,534.868958 956.270813,519.826477 914.307739,504.701935 
	C898.022705,498.832458 881.780029,492.845581 865.281189,486.825775 
	C841.555664,567.821411 817.949768,648.408813 794.343872,728.996216 
	C791.787170,720.504517 790.492981,712.224243 788.858093,704.011841 
	C783.641724,677.808655 778.249390,651.640381 773.020447,625.439636 
	C768.963562,605.111694 765.015869,584.761597 761.116028,564.402893 
	C760.644714,561.942444 759.881775,558.984253 760.771057,556.905884 
	C766.799194,542.818115 773.223450,528.899658 779.543518,514.937195 
	C783.700378,505.753632 787.897217,496.588165 792.157349,487.236481 
	C756.127686,487.236481 720.711304,487.236481 685.101318,487.236481 
	C685.292480,487.958801 685.349182,488.441284 685.541565,488.861694 
	C694.679565,508.831909 704.056946,528.698181 712.781128,548.847412 
	C714.477478,552.765320 717.690308,556.204163 716.309082,561.860657 
	C712.853027,576.014221 710.746216,590.494080 707.982605,604.820740 
	C705.190552,619.294739 702.254639,633.740967 699.390259,648.200989 
	C696.588440,662.345032 693.771912,676.486206 691.009155,690.637817 
	C688.535339,703.309448 686.125793,715.993652 683.687866,728.672302 
	C683.351807,728.693787 683.015747,728.715210 682.679688,728.736694 
	C659.060730,648.125977 635.441833,567.515198 611.770630,486.726166 
	C592.192322,493.944092 573.204163,501.070068 554.127747,507.950958 
	C515.360291,521.934448 476.531372,535.747681 437.790955,549.804993 
	C435.892181,550.494080 433.700348,552.586670 433.170105,554.457825 
	C430.711823,563.132507 428.584930,571.916077 426.723663,580.741760 
	C423.016113,598.322021 419.479034,615.939514 416.028961,633.572388 
	C413.629730,645.834595 411.424347,658.136169 409.258545,670.442322 
	C407.090973,682.758728 405.059204,695.099243 403.006958,707.435669 
	C401.223389,718.157043 399.534088,728.894104 397.731110,739.612183 
	C395.526947,752.715088 393.220856,765.800842 391.009918,778.902649 
	C389.414948,788.354492 387.865814,797.814453 386.366241,807.281921 
	C385.096924,815.295837 383.927979,823.325623 382.598450,832.116516 
	C405.009735,836.129822 426.953400,840.234436 448.963959,843.941772 
	C464.681976,846.589233 480.489105,848.708069 496.257782,851.053894 
	C509.619324,853.041626 522.954102,855.243896 536.353455,856.932251 
	C549.334412,858.567993 562.384277,859.653687 575.400879,861.010010 
	C591.204163,862.656616 606.982666,864.593750 622.812744,865.915771 
	C635.629761,866.986206 648.506897,867.341187 661.358215,867.996277 
	C668.289490,868.349548 675.227905,868.592834 682.149170,869.082397 
	C683.139709,869.152405 684.051697,870.333252 685.000000,871.000000 
	C457.000000,871.000000 228.999985,871.000000 1.000000,871.000000 
	C1.000000,851.233398 1.000000,831.577942 1.408586,811.451050 
	C18.893829,814.662354 35.878410,818.867737 53.070244,821.896912 
	C74.995903,825.760132 97.047737,828.987549 119.124565,831.884094 
	C133.751144,833.803101 148.499786,834.911438 163.225372,835.922241 
	C177.718582,836.916992 192.252487,837.313049 206.766785,838.008362 
	C212.520889,838.283997 218.272873,838.978333 224.021317,838.931396 
	C247.945740,838.735779 271.876678,838.612061 295.789154,837.912598 
	C314.915863,837.353149 334.011688,835.734863 353.138428,835.182434 
	C358.015625,835.041565 359.378448,833.077576 360.009796,829.095825 
	C362.298279,814.662903 364.618774,800.234924 366.968872,785.811890 
	C370.623322,763.383972 374.224213,740.946777 378.011414,718.541260 
	C381.554016,697.582642 385.124420,676.625427 389.018463,655.730225 
	C393.796082,630.093994 398.949554,604.527954 403.847931,578.913757 
	C404.248108,576.821289 404.874695,574.394531 401.700256,573.288208 
	C386.274200,567.911499 370.888489,562.418945 355.383698,556.930359 
	C338.029633,616.074585 320.766998,674.907166 303.436859,733.969727 
	C302.905548,733.306274 302.251984,732.856750 302.142273,732.299927 
	C298.729431,714.981873 295.400604,697.647278 291.993683,680.328064 
	C288.058380,660.322693 283.979797,640.345032 280.157837,620.318237 
	C279.360046,616.137756 278.132416,611.385498 279.340363,607.613281 
	C281.785156,599.978638 285.774841,592.840393 289.105164,585.487366 
	C293.355164,576.103577 297.583069,566.709778 301.830200,557.298889 
	C275.321777,557.298889 249.267853,557.298889 222.826630,557.298889 
	C228.549210,569.853394 234.266174,581.939941 239.572922,594.204041 
	C242.903122,601.900269 247.343613,609.017761 245.033905,618.567139 
	C240.356949,637.903687 236.875504,657.532227 233.021957,677.064270 
	C229.234116,696.263184 225.595932,715.491577 221.718460,735.607788 
	C204.115952,675.471863 186.791214,616.284851 169.471161,557.113892 
	C169.081009,557.091370 168.711533,556.965332 168.424362,557.068359 
	C126.464386,572.132935 84.488350,587.153870 42.615414,602.456848 
	C40.313187,603.298279 37.716564,606.244019 37.206245,608.627563 
	C32.230598,631.867554 27.485771,655.161316 23.045221,678.510193 
	C18.804667,700.807373 14.847849,723.161865 11.060668,745.540955 
	C8.133279,762.839355 5.677226,780.217407 2.913608,797.544434 
	C2.822321,798.116760 1.661988,798.518616 0.999990,799.000000 
	C1.000000,533.075745 1.000000,267.151489 1.000000,1.000000 
	C229.359116,1.000000 457.718323,1.000000 686.842957,1.356682 
	C687.111511,2.128965 686.675781,2.774866 686.108521,2.925425 
	C678.339966,4.987447 670.283142,6.274681 662.822815,9.127069 
	C642.362000,16.950060 629.894043,32.312977 625.379456,53.439453 
	C624.162537,59.134369 622.651733,60.412941 617.454895,60.078907 
	C604.745239,59.261948 593.632263,68.251366 591.100037,79.067017 
	C589.181458,87.261383 587.262878,95.698036 587.202209,104.040398 
	C587.007385,130.799774 587.675415,157.565430 588.013184,184.328629 
	C588.019470,184.828003 587.888733,185.426636 588.111938,185.810333 
	C589.922791,188.923630 588.084045,189.348419 585.515076,190.342743 
	C576.286316,193.914566 568.655212,199.521194 565.305054,209.351120 
	C562.000061,219.048721 562.244446,228.992157 564.003662,238.950119 
	C567.499878,258.741241 573.523926,277.676422 585.696472,293.893585 
	C591.189758,301.212128 598.143066,307.610352 608.686951,307.132751 
	C609.738159,307.085144 611.382996,308.666107 611.886658,309.857239 
	C615.335999,318.015930 618.365051,326.354187 621.882812,334.481659 
	C631.809143,357.415375 645.331970,377.713928 664.522217,394.166138 
	C685.508911,412.158600 710.044617,420.139160 737.122986,420.798218 
	C745.858704,421.010803 754.734131,419.478577 763.397766,417.921478 
	C791.993347,412.782043 814.004944,396.835602 831.674316,374.553528 
	C847.618164,354.447540 858.085815,331.368561 866.332703,307.022614 
	C879.034973,308.178925 886.637756,300.522247 893.184082,291.330170 
	C903.896484,276.288147 909.335083,259.003845 912.762573,241.208847 
	C914.362366,232.903091 914.581177,223.961746 913.436279,215.580261 
	C911.537354,201.677811 902.174072,193.497391 888.555786,189.488861 
	C889.373474,180.479324 890.733948,171.652466 890.868896,162.806946 
	C891.223083,139.584702 892.349060,116.199821 885.847778,93.530319 
	C882.538635,81.991646 877.869141,70.320610 865.301636,66.189034 
	C858.188721,63.850628 854.304993,59.274651 850.412598,53.898544 
	C849.555603,52.714828 848.788696,51.451401 847.825928,50.360977 
	C834.371948,35.123692 817.227539,25.588457 798.331665,19.059359 
	C775.790771,11.270828 752.748596,5.442306 728.952515,2.923302 
	C728.241760,2.848064 727.648193,1.666011 727.000000,0.999999 
	C976.598389,1.000000 1226.196777,1.000000 1476.000000,1.000000 
	C1476.000000,266.359131 1476.000000,531.718323 1475.645630,797.852234 
	C1474.527222,795.385376 1473.573120,792.174988 1473.034058,788.896423 
	C1471.212402,777.817627 1469.660889,766.693848 1467.777344,755.626099 
	C1465.298828,741.062073 1462.534546,726.546692 1460.020630,711.988464 
	C1457.533325,697.584717 1455.455811,683.106140 1452.742676,668.746582 
	C1449.406128,651.086975 1445.502686,633.535095 1442.035156,615.899231 
	C1440.498779,608.084595 1437.953125,601.804932 1428.761230,600.166809 
	C1423.123413,599.162048 1417.736694,596.660400 1412.289795,594.686096 
	C1377.672485,582.139099 1343.069946,569.551697 1307.767700,556.725220 
	C1290.338745,616.212952 1272.998169,675.399231 1255.486816,735.168274 
	C1251.237915,714.322571 1247.073364,694.192688 1243.045410,674.035583 
	C1239.617798,656.882690 1236.117065,639.738037 1233.140991,622.504822 
	C1232.176147,616.917175 1229.460571,611.243835 1232.238892,605.335938 
	C1236.010498,597.316650 1239.665649,589.242554 1243.347900,581.181519 
	C1246.951294,573.293152 1250.526001,565.391724 1254.194702,557.317017 
	C1227.860107,557.317017 1201.997925,557.317017 1175.946899,557.317017 
	C1176.066772,558.295715 1175.990845,559.010559 1176.247437,559.573792 
	C1182.800781,573.956055 1189.448120,588.296021 1195.917236,602.715881 
	C1197.099365,605.350891 1198.635742,608.471924 1198.212036,611.076233 
	C1195.763184,626.128113 1192.855469,641.107727 1189.950439,656.082214 
	C1185.694702,678.019836 1181.330566,699.936523 1176.961792,721.851990 
	C1176.157593,725.886108 1175.112061,729.872009 1173.901733,735.065308 
	C1156.248901,674.794800 1138.982788,615.844299 1121.697266,556.828186 
	C1105.108643,562.796814 1089.089478,568.560608 1072.720337,574.450317 
	C1073.176636,576.892517 1073.578613,579.100159 1074.002197,581.303528 
	C1077.397583,598.958618 1080.836304,616.605530 1084.184448,634.269592 
	C1087.502686,651.776855 1090.891846,669.273132 1093.952271,686.826172 
	C1096.855347,703.475464 1099.286133,720.206482 1102.084839,736.874756 
	C1104.610229,751.914185 1107.506592,766.892090 1109.956055,781.943298 
	C1112.490356,797.516235 1114.523804,813.172241 1117.208618,828.717285 
	C1117.583740,830.889343 1116.603760,834.938171 1121.545288,835.102234 
	C1129.911255,835.380005 1138.246704,836.467041 1146.610107,836.958679 
	C1159.962769,837.743652 1173.327515,838.866211 1186.687622,838.873474 
	C1217.454346,838.890137 1248.221924,838.368286 1278.987671,837.954651 
	C1285.749146,837.863770 1292.517334,837.477112 1299.259888,836.942017 
	C1314.638428,835.721497 1330.003784,834.335938 1345.372559,832.994690 
	C1352.885376,832.339111 1360.430054,831.901306 1367.895874,830.889221 
	C1380.945679,829.120117 1393.969116,827.124512 1406.959839,824.960876 
	C1419.447754,822.881042 1431.916260,820.646606 1444.326050,818.146667 
	C1454.933472,816.009766 1465.445679,813.400391 1476.000000,811.000000 
M1235.253906,206.062943 
	C1234.269043,205.969498 1233.273804,205.936829 1232.300781,205.773361 
	C1220.920898,203.861374 1209.601318,201.371094 1198.146484,200.204941 
	C1190.835815,199.460663 1183.259644,200.158920 1175.921387,201.118530 
	C1164.378296,202.627991 1153.683838,206.577209 1144.858521,214.624237 
	C1136.473145,222.270096 1132.089233,231.952103 1130.578613,242.967178 
	C1113.426514,241.968414 1106.479614,251.963974 1105.141724,260.966339 
	C1103.840454,269.721039 1103.249268,278.636017 1103.089966,287.494019 
	C1102.783203,304.570465 1103.000732,321.656311 1103.000732,338.163452 
	C1099.628906,340.372131 1095.403198,342.171204 1092.508911,345.230164 
	C1085.712158,352.413727 1084.626587,361.247650 1085.874756,370.942047 
	C1087.957153,387.115875 1093.021484,402.083160 1102.315186,415.429749 
	C1106.115479,420.887268 1111.292480,424.901733 1118.609985,425.146332 
	C1119.770264,425.185120 1121.294189,426.962616 1121.923828,428.282593 
	C1127.386719,439.733521 1132.111328,451.576447 1138.184570,462.685516 
	C1144.754517,474.703369 1153.808350,484.879974 1165.081665,492.963623 
	C1184.648560,506.994324 1206.449463,510.398987 1229.768311,507.006134 
	C1245.982178,504.647034 1259.884155,497.577332 1271.932739,486.588928 
	C1288.086426,471.856689 1298.074097,453.149994 1305.752441,433.151581 
	C1307.653442,428.200500 1309.138916,425.438232 1314.949341,424.177216 
	C1323.206177,422.385193 1328.110840,415.308990 1331.887939,408.122284 
	C1337.628296,397.200439 1341.684448,385.663727 1343.335571,373.318024 
	C1344.325684,365.914948 1344.593872,358.789642 1341.357422,351.739319 
	C1338.048340,344.530701 1332.092041,340.874268 1324.846191,338.354797 
	C1325.566162,331.431305 1326.719238,324.614777 1326.898804,317.772705 
	C1327.343628,300.825195 1327.616821,283.788696 1322.875000,267.301300 
	C1319.954102,257.145691 1314.750488,248.529236 1303.236694,245.901947 
	C1302.217163,245.669296 1301.467041,244.237686 1300.600586,243.354309 
	C1294.915161,237.557526 1289.784424,231.048935 1283.435059,226.105453 
	C1269.527588,215.277512 1252.770386,210.705078 1235.253906,206.062943 
M314.958923,204.450867 
	C306.330048,202.967621 297.686707,200.207947 289.075745,200.305634 
	C276.713837,200.445862 264.249695,201.970200 252.056534,204.165955 
	C233.635254,207.483261 215.411255,212.176422 199.299042,222.151794 
	C192.664093,226.259628 187.073700,232.105469 181.207077,237.381927 
	C178.295212,240.000870 176.335175,244.682098 173.076553,245.729126 
	C161.898758,249.320801 156.785004,257.683289 154.162643,267.864014 
	C152.264496,275.233154 151.351456,282.957153 150.912949,290.575500 
	C150.364807,300.098663 150.610077,309.678406 150.787735,319.228607 
	C150.909592,325.778809 151.499969,332.320282 151.878082,338.816986 
	C140.220245,341.116089 133.299088,351.431458 133.057526,362.616730 
	C132.702042,379.077454 137.750122,394.349030 145.494873,408.506287 
	C150.327637,417.340485 156.469284,425.936127 168.586029,425.113220 
	C173.526566,440.790588 180.224670,455.421478 189.467957,468.730133 
	C198.721878,482.054169 210.186142,493.260132 224.944443,500.343292 
	C241.632492,508.352600 259.368011,509.697418 277.543365,507.018616 
	C300.441986,503.643646 317.894318,491.301544 331.694305,473.505310 
	C342.241730,459.903534 349.609741,444.483826 355.111420,428.164825 
	C355.546234,426.875153 357.295746,425.202881 358.511292,425.137360 
	C365.960022,424.735748 370.819214,420.480133 374.994873,414.944946 
	C382.625641,404.829651 386.858673,393.071442 389.616394,381.028351 
	C391.395721,373.258057 391.716431,364.764984 390.715118,356.845642 
	C389.477112,347.054413 382.384460,341.178009 372.544800,338.364258 
	C373.034790,332.048004 373.932983,325.969238 373.897339,319.895966 
	C373.791260,301.802948 373.651672,283.696259 372.791016,265.629852 
	C372.523987,260.024353 370.789062,254.352493 366.435791,249.753204 
	C360.812836,243.812515 353.904358,242.654434 346.433167,243.016159 
	C343.924103,223.876709 331.671082,210.045319 314.958923,204.450867 
z"/>
<path fill="#FFFFFF" opacity="1.000000" stroke="none" 
	d="
M685.468628,871.000000 
	C684.051697,870.333252 683.139709,869.152405 682.149170,869.082397 
	C675.227905,868.592834 668.289490,868.349548 661.358215,867.996277 
	C648.506897,867.341187 635.629761,866.986206 622.812744,865.915771 
	C606.982666,864.593750 591.204163,862.656616 575.400879,861.010010 
	C562.384277,859.653687 549.334412,858.567993 536.353455,856.932251 
	C522.954102,855.243896 509.619324,853.041626 496.257782,851.053894 
	C480.489105,848.708069 464.681976,846.589233 448.963959,843.941772 
	C426.953400,840.234436 405.009735,836.129822 382.598450,832.116516 
	C383.927979,823.325623 385.096924,815.295837 386.366241,807.281921 
	C387.865814,797.814453 389.414948,788.354492 391.009918,778.902649 
	C393.220856,765.800842 395.526947,752.715088 397.731110,739.612183 
	C399.534088,728.894104 401.223389,718.157043 403.006958,707.435669 
	C405.059204,695.099243 407.090973,682.758728 409.258545,670.442322 
	C411.424347,658.136169 413.629730,645.834595 416.028961,633.572388 
	C419.479034,615.939514 423.016113,598.322021 426.723663,580.741760 
	C428.584930,571.916077 430.711823,563.132507 433.170105,554.457825 
	C433.700348,552.586670 435.892181,550.494080 437.790955,549.804993 
	C476.531372,535.747681 515.360291,521.934448 554.127747,507.950958 
	C573.204163,501.070068 592.192322,493.944092 611.770630,486.726166 
	C635.441833,567.515198 659.060730,648.125977 682.679688,728.736694 
	C683.015747,728.715210 683.351807,728.693787 683.687866,728.672302 
	C686.125793,715.993652 688.535339,703.309448 691.009155,690.637817 
	C693.771912,676.486206 696.588440,662.345032 699.390259,648.200989 
	C702.254639,633.740967 705.190552,619.294739 707.982605,604.820740 
	C710.746216,590.494080 712.853027,576.014221 716.309082,561.860657 
	C717.690308,556.204163 714.477478,552.765320 712.781128,548.847412 
	C704.056946,528.698181 694.679565,508.831909 685.541565,488.861694 
	C685.349182,488.441284 685.292480,487.958801 685.101318,487.236481 
	C720.711304,487.236481 756.127686,487.236481 792.157349,487.236481 
	C787.897217,496.588165 783.700378,505.753632 779.543518,514.937195 
	C773.223450,528.899658 766.799194,542.818115 760.771057,556.905884 
	C759.881775,558.984253 760.644714,561.942444 761.116028,564.402893 
	C765.015869,584.761597 768.963562,605.111694 773.020447,625.439636 
	C778.249390,651.640381 783.641724,677.808655 788.858093,704.011841 
	C790.492981,712.224243 791.787170,720.504517 794.343872,728.996216 
	C817.949768,648.408813 841.555664,567.821411 865.281189,486.825775 
	C881.780029,492.845581 898.022705,498.832458 914.307739,504.701935 
	C956.270813,519.826477 998.263550,534.868958 1040.184814,550.108276 
	C1041.771118,550.684937 1043.454834,552.786743 1043.879761,554.481995 
	C1047.414673,568.581360 1050.874512,582.706848 1053.942017,596.914062 
	C1057.155884,611.799377 1060.063599,626.755554 1062.821289,641.733093 
	C1065.407471,655.779175 1067.565430,669.903625 1070.016479,683.975342 
	C1072.549194,698.515564 1075.279175,713.021545 1077.788208,727.565735 
	C1079.637207,738.282959 1081.235840,749.043091 1083.007568,759.773987 
	C1085.256958,773.397522 1087.614136,787.003296 1089.837646,800.630981 
	C1091.304199,809.619202 1092.633545,818.629944 1093.988647,827.636047 
	C1094.388184,830.290588 1093.876465,832.302917 1090.711792,833.015381 
	C1073.230225,836.951233 1055.834717,841.294678 1038.288940,844.912231 
	C1021.923523,848.286438 1005.442261,851.145264 988.944641,853.814880 
	C977.986023,855.588257 966.907410,856.617126 955.885559,858.003296 
	C945.534058,859.305115 935.199829,860.757446 924.832947,861.919128 
	C917.008972,862.795837 909.154114,863.449768 901.297607,863.971069 
	C884.850159,865.062317 868.396362,866.068420 851.937988,866.980774 
	C838.091858,867.748230 824.233887,868.299438 810.386353,869.043701 
	C808.697327,869.134521 807.040710,869.828674 805.684570,870.621582 
	C765.979126,871.000000 725.958191,871.000000 685.468628,871.000000 
z"/>
<path fill="#FFFFFF" opacity="1.000000" stroke="none" 
	d="
M726.531372,0.999999 
	C727.648193,1.666011 728.241760,2.848064 728.952515,2.923302 
	C752.748596,5.442306 775.790771,11.270828 798.331665,19.059359 
	C817.227539,25.588457 834.371948,35.123692 847.825928,50.360977 
	C848.788696,51.451401 849.555603,52.714828 850.412598,53.898544 
	C854.304993,59.274651 858.188721,63.850628 865.301636,66.189034 
	C877.869141,70.320610 882.538635,81.991646 885.847778,93.530319 
	C892.349060,116.199821 891.223083,139.584702 890.868896,162.806946 
	C890.733948,171.652466 889.373474,180.479324 888.555786,189.488861 
	C902.174072,193.497391 911.537354,201.677811 913.436279,215.580261 
	C914.581177,223.961746 914.362366,232.903091 912.762573,241.208847 
	C909.335083,259.003845 903.896484,276.288147 893.184082,291.330170 
	C886.637756,300.522247 879.034973,308.178925 866.332703,307.022614 
	C858.085815,331.368561 847.618164,354.447540 831.674316,374.553528 
	C814.004944,396.835602 791.993347,412.782043 763.397766,417.921478 
	C754.734131,419.478577 745.858704,421.010803 737.122986,420.798218 
	C710.044617,420.139160 685.508911,412.158600 664.522217,394.166138 
	C645.331970,377.713928 631.809143,357.415375 621.882812,334.481659 
	C618.365051,326.354187 615.335999,318.015930 611.886658,309.857239 
	C611.382996,308.666107 609.738159,307.085144 608.686951,307.132751 
	C598.143066,307.610352 591.189758,301.212128 585.696472,293.893585 
	C573.523926,277.676422 567.499878,258.741241 564.003662,238.950119 
	C562.244446,228.992157 562.000061,219.048721 565.305054,209.351120 
	C568.655212,199.521194 576.286316,193.914566 585.515076,190.342743 
	C588.084045,189.348419 589.922791,188.923630 588.111938,185.810333 
	C587.888733,185.426636 588.019470,184.828003 588.013184,184.328629 
	C587.675415,157.565430 587.007385,130.799774 587.202209,104.040398 
	C587.262878,95.698036 589.181458,87.261383 591.100037,79.067017 
	C593.632263,68.251366 604.745239,59.261948 617.454895,60.078907 
	C622.651733,60.412941 624.162537,59.134369 625.379456,53.439453 
	C629.894043,32.312977 642.362000,16.950060 662.822815,9.127069 
	C670.283142,6.274681 678.339966,4.987447 686.108521,2.925425 
	C686.675781,2.774866 687.111511,2.128965 687.304199,1.356682 
	C700.020874,1.000000 713.041809,1.000000 726.531372,0.999999 
z"/>
<path fill="#FFFFFF" opacity="1.000000" stroke="none" 
	d="
M0.999990,799.460632 
	C1.661988,798.518616 2.822321,798.116760 2.913608,797.544434 
	C5.677226,780.217407 8.133279,762.839355 11.060668,745.540955 
	C14.847849,723.161865 18.804667,700.807373 23.045221,678.510193 
	C27.485771,655.161316 32.230598,631.867554 37.206245,608.627563 
	C37.716564,606.244019 40.313187,603.298279 42.615414,602.456848 
	C84.488350,587.153870 126.464386,572.132935 168.424362,557.068359 
	C168.711533,556.965332 169.081009,557.091370 169.471161,557.113892 
	C186.791214,616.284851 204.115952,675.471863 221.718460,735.607788 
	C225.595932,715.491577 229.234116,696.263184 233.021957,677.064270 
	C236.875504,657.532227 240.356949,637.903687 245.033905,618.567139 
	C247.343613,609.017761 242.903122,601.900269 239.572922,594.204041 
	C234.266174,581.939941 228.549210,569.853394 222.826630,557.298889 
	C249.267853,557.298889 275.321777,557.298889 301.830200,557.298889 
	C297.583069,566.709778 293.355164,576.103577 289.105164,585.487366 
	C285.774841,592.840393 281.785156,599.978638 279.340363,607.613281 
	C278.132416,611.385498 279.360046,616.137756 280.157837,620.318237 
	C283.979797,640.345032 288.058380,660.322693 291.993683,680.328064 
	C295.400604,697.647278 298.729431,714.981873 302.142273,732.299927 
	C302.251984,732.856750 302.905548,733.306274 303.436859,733.969727 
	C320.766998,674.907166 338.029633,616.074585 355.383698,556.930359 
	C370.888489,562.418945 386.274200,567.911499 401.700256,573.288208 
	C404.874695,574.394531 404.248108,576.821289 403.847931,578.913757 
	C398.949554,604.527954 393.796082,630.093994 389.018463,655.730225 
	C385.124420,676.625427 381.554016,697.582642 378.011414,718.541260 
	C374.224213,740.946777 370.623322,763.383972 366.968872,785.811890 
	C364.618774,800.234924 362.298279,814.662903 360.009796,829.095825 
	C359.378448,833.077576 358.015625,835.041565 353.138428,835.182434 
	C334.011688,835.734863 314.915863,837.353149 295.789154,837.912598 
	C271.876678,838.612061 247.945740,838.735779 224.021317,838.931396 
	C218.272873,838.978333 212.520889,838.283997 206.766785,838.008362 
	C192.252487,837.313049 177.718582,836.916992 163.225372,835.922241 
	C148.499786,834.911438 133.751144,833.803101 119.124565,831.884094 
	C97.047737,828.987549 74.995903,825.760132 53.070244,821.896912 
	C35.878410,818.867737 18.893829,814.662354 1.408586,810.989746 
	C1.000000,807.307068 1.000000,803.614197 0.999990,799.460632 
z"/>
<path fill="#FFFFFF" opacity="1.000000" stroke="none" 
	d="
M1476.000000,810.536743 
	C1465.445679,813.400391 1454.933472,816.009766 1444.326050,818.146667 
	C1431.916260,820.646606 1419.447754,822.881042 1406.959839,824.960876 
	C1393.969116,827.124512 1380.945679,829.120117 1367.895874,830.889221 
	C1360.430054,831.901306 1352.885376,832.339111 1345.372559,832.994690 
	C1330.003784,834.335938 1314.638428,835.721497 1299.259888,836.942017 
	C1292.517334,837.477112 1285.749146,837.863770 1278.987671,837.954651 
	C1248.221924,838.368286 1217.454346,838.890137 1186.687622,838.873474 
	C1173.327515,838.866211 1159.962769,837.743652 1146.610107,836.958679 
	C1138.246704,836.467041 1129.911255,835.380005 1121.545288,835.102234 
	C1116.603760,834.938171 1117.583740,830.889343 1117.208618,828.717285 
	C1114.523804,813.172241 1112.490356,797.516235 1109.956055,781.943298 
	C1107.506592,766.892090 1104.610229,751.914185 1102.084839,736.874756 
	C1099.286133,720.206482 1096.855347,703.475464 1093.952271,686.826172 
	C1090.891846,669.273132 1087.502686,651.776855 1084.184448,634.269592 
	C1080.836304,616.605530 1077.397583,598.958618 1074.002197,581.303528 
	C1073.578613,579.100159 1073.176636,576.892517 1072.720337,574.450317 
	C1089.089478,568.560608 1105.108643,562.796814 1121.697266,556.828186 
	C1138.982788,615.844299 1156.248901,674.794800 1173.901733,735.065308 
	C1175.112061,729.872009 1176.157593,725.886108 1176.961792,721.851990 
	C1181.330566,699.936523 1185.694702,678.019836 1189.950439,656.082214 
	C1192.855469,641.107727 1195.763184,626.128113 1198.212036,611.076233 
	C1198.635742,608.471924 1197.099365,605.350891 1195.917236,602.715881 
	C1189.448120,588.296021 1182.800781,573.956055 1176.247437,559.573792 
	C1175.990845,559.010559 1176.066772,558.295715 1175.946899,557.317017 
	C1201.997925,557.317017 1227.860107,557.317017 1254.194702,557.317017 
	C1250.526001,565.391724 1246.951294,573.293152 1243.347900,581.181519 
	C1239.665649,589.242554 1236.010498,597.316650 1232.238892,605.335938 
	C1229.460571,611.243835 1232.176147,616.917175 1233.140991,622.504822 
	C1236.117065,639.738037 1239.617798,656.882690 1243.045410,674.035583 
	C1247.073364,694.192688 1251.237915,714.322571 1255.486816,735.168274 
	C1272.998169,675.399231 1290.338745,616.212952 1307.767700,556.725220 
	C1343.069946,569.551697 1377.672485,582.139099 1412.289795,594.686096 
	C1417.736694,596.660400 1423.123413,599.162048 1428.761230,600.166809 
	C1437.953125,601.804932 1440.498779,608.084595 1442.035156,615.899231 
	C1445.502686,633.535095 1449.406128,651.086975 1452.742676,668.746582 
	C1455.455811,683.106140 1457.533325,697.584717 1460.020630,711.988464 
	C1462.534546,726.546692 1465.298828,741.062073 1467.777344,755.626099 
	C1469.660889,766.693848 1471.212402,777.817627 1473.034058,788.896423 
	C1473.573120,792.174988 1474.527222,795.385376 1475.645630,798.313477 
	C1476.000000,802.024536 1476.000000,806.049072 1476.000000,810.536743 
z"/>
<path fill="#FFFFFF" opacity="1.000000" stroke="none" 
	d="
M1235.614502,206.291046 
	C1252.770386,210.705078 1269.527588,215.277512 1283.435059,226.105453 
	C1289.784424,231.048935 1294.915161,237.557526 1300.600586,243.354309 
	C1301.467041,244.237686 1302.217163,245.669296 1303.236694,245.901947 
	C1314.750488,248.529236 1319.954102,257.145691 1322.875000,267.301300 
	C1327.616821,283.788696 1327.343628,300.825195 1326.898804,317.772705 
	C1326.719238,324.614777 1325.566162,331.431305 1324.846191,338.354797 
	C1332.092041,340.874268 1338.048340,344.530701 1341.357422,351.739319 
	C1344.593872,358.789642 1344.325684,365.914948 1343.335571,373.318024 
	C1341.684448,385.663727 1337.628296,397.200439 1331.887939,408.122284 
	C1328.110840,415.308990 1323.206177,422.385193 1314.949341,424.177216 
	C1309.138916,425.438232 1307.653442,428.200500 1305.752441,433.151581 
	C1298.074097,453.149994 1288.086426,471.856689 1271.932739,486.588928 
	C1259.884155,497.577332 1245.982178,504.647034 1229.768311,507.006134 
	C1206.449463,510.398987 1184.648560,506.994324 1165.081665,492.963623 
	C1153.808350,484.879974 1144.754517,474.703369 1138.184570,462.685516 
	C1132.111328,451.576447 1127.386719,439.733521 1121.923828,428.282593 
	C1121.294189,426.962616 1119.770264,425.185120 1118.609985,425.146332 
	C1111.292480,424.901733 1106.115479,420.887268 1102.315186,415.429749 
	C1093.021484,402.083160 1087.957153,387.115875 1085.874756,370.942047 
	C1084.626587,361.247650 1085.712158,352.413727 1092.508911,345.230164 
	C1095.403198,342.171204 1099.628906,340.372131 1103.000732,338.163452 
	C1103.000732,321.656311 1102.783203,304.570465 1103.089966,287.494019 
	C1103.249268,278.636017 1103.840454,269.721039 1105.141724,260.966339 
	C1106.479614,251.963974 1113.426514,241.968414 1130.578613,242.967178 
	C1132.089233,231.952103 1136.473145,222.270096 1144.858521,214.624237 
	C1153.683838,206.577209 1164.378296,202.627991 1175.921387,201.118530 
	C1183.259644,200.158920 1190.835815,199.460663 1198.146484,200.204941 
	C1209.601318,201.371094 1220.920898,203.861374 1232.300781,205.773361 
	C1233.273804,205.936829 1234.269043,205.969498 1235.614502,206.291046 
z"/>
<path fill="#FFFFFF" opacity="1.000000" stroke="none" 
	d="
M315.274536,204.703766 
	C331.671082,210.045319 343.924103,223.876709 346.433167,243.016159 
	C353.904358,242.654434 360.812836,243.812515 366.435791,249.753204 
	C370.789062,254.352493 372.523987,260.024353 372.791016,265.629852 
	C373.651672,283.696259 373.791260,301.802948 373.897339,319.895966 
	C373.932983,325.969238 373.034790,332.048004 372.544800,338.364258 
	C382.384460,341.178009 389.477112,347.054413 390.715118,356.845642 
	C391.716431,364.764984 391.395721,373.258057 389.616394,381.028351 
	C386.858673,393.071442 382.625641,404.829651 374.994873,414.944946 
	C370.819214,420.480133 365.960022,424.735748 358.511292,425.137360 
	C357.295746,425.202881 355.546234,426.875153 355.111420,428.164825 
	C349.609741,444.483826 342.241730,459.903534 331.694305,473.505310 
	C317.894318,491.301544 300.441986,503.643646 277.543365,507.018616 
	C259.368011,509.697418 241.632492,508.352600 224.944443,500.343292 
	C210.186142,493.260132 198.721878,482.054169 189.467957,468.730133 
	C180.224670,455.421478 173.526566,440.790588 168.586029,425.113220 
	C156.469284,425.936127 150.327637,417.340485 145.494873,408.506287 
	C137.750122,394.349030 132.702042,379.077454 133.057526,362.616730 
	C133.299088,351.431458 140.220245,341.116089 151.878082,338.816986 
	C151.499969,332.320282 150.909592,325.778809 150.787735,319.228607 
	C150.610077,309.678406 150.364807,300.098663 150.912949,290.575500 
	C151.351456,282.957153 152.264496,275.233154 154.162643,267.864014 
	C156.785004,257.683289 161.898758,249.320801 173.076553,245.729126 
	C176.335175,244.682098 178.295212,240.000870 181.207077,237.381927 
	C187.073700,232.105469 192.664093,226.259628 199.299042,222.151794 
	C215.411255,212.176422 233.635254,207.483261 252.056534,204.165955 
	C264.249695,201.970200 276.713837,200.445862 289.075745,200.305634 
	C297.686707,200.207947 306.330048,202.967621 315.274536,204.703766 
z"/>
</svg>